<svg class="icon-cross" width="25" height="25" viewBox="0 0 25 25" fill="none" xmlns="http://www.w3.org/2000/svg">
<path d="M18.8597 18.1527C19.0491 18.3488 19.0464 18.6607 18.8536 18.8536C18.6607 19.0464 18.3488 19.0491 18.1527 18.8597L12.5062 13.2132L6.85966 18.8597C6.66347 19.0491 6.35161 19.0464 6.15875 18.8536C5.96588 18.6607 5.96317 18.3488 6.15266 18.1527L11.7992 12.5062L6.15266 6.85966C6.02268 6.73412 5.97055 6.54822 6.01631 6.3734C6.06207 6.19859 6.19859 6.06207 6.3734 6.01631C6.54822 5.97055 6.73412 6.02268 6.85966 6.15266L12.5062 11.7992L18.1527 6.15266C18.2782 6.02268 18.4641 5.97055 18.6389 6.01631C18.8137 6.06207 18.9502 6.19859 18.996 6.3734C19.0418 6.54822 18.9896 6.73412 18.8597 6.85966L13.2132 12.5062L18.8597 18.1527Z" fill="white" stroke="white" stroke-linejoin="round"/>
</svg>
