<svg width="15" height="15" viewBox="0 0 15 15" fill="none" xmlns="http://www.w3.org/2000/svg">
<rect width="15" height="15" rx="2" fill="#F34943"/>
<path d="M11.3159 10.8912C11.4296 11.0089 11.428 11.196 11.3122 11.3117C11.1965 11.4275 11.0094 11.4291 10.8917 11.3154L7.50379 7.9275L4.11589 11.3154C3.99818 11.4291 3.81107 11.4275 3.69535 11.3117C3.57963 11.196 3.578 11.0089 3.69169 10.8912L7.07959 7.5033L3.69169 4.1154C3.6137 4.04008 3.58243 3.92854 3.60988 3.82365C3.63734 3.71876 3.71925 3.63685 3.82414 3.60939C3.92903 3.58194 4.04057 3.61322 4.11589 3.6912L7.50379 7.0791L10.8917 3.6912C10.967 3.61322 11.0786 3.58194 11.1834 3.60939C11.2883 3.63685 11.3702 3.71876 11.3977 3.82365C11.4252 3.92854 11.3939 4.04008 11.3159 4.1154L7.92799 7.5033L11.3159 10.8912Z" fill="white" stroke="white" stroke-linejoin="round"/>
</svg>
