<svg width="45" height="50" viewBox="0 0 45 50" fill="none" xmlns="http://www.w3.org/2000/svg">
<path d="M44.4732 16.1425C45.176 16.9235 45.176 18.1896 44.4732 18.9707L43.2006 20.3847C42.863 20.7598 42.4052 20.9705 41.9277 20.9705C41.4503 20.9705 40.9924 20.7598 40.6549 20.3847L35.5637 14.7275L13.2545 39.5155L18.346 45.1727C19.0488 45.9537 19.0488 47.2199 18.346 48.0009L17.0734 49.4149C16.7359 49.79 16.278 50.0007 15.8006 50.0007C15.3231 50.0007 14.8653 49.79 14.5277 49.4149L13.2549 47.9999L11.9819 49.4139C11.279 50.1949 10.1393 50.1949 9.43639 49.4139L6.89119 46.5869L5.61805 47.9999C5.28047 48.375 4.8226 48.5857 4.34518 48.5857C3.86775 48.5857 3.40988 48.375 3.07231 47.9999L1.79971 46.5869C1.0969 45.8058 1.0969 44.5397 1.79971 43.7587L3.07267 42.3437L0.527106 39.5155C-0.175702 38.7344 -0.175702 37.4683 0.527106 36.6873L1.79971 35.2733V35.2733L0.527106 33.8583C-0.175702 33.0772 -0.175702 31.8111 0.527106 31.0301L1.79971 29.6161C2.50265 28.835 3.64232 28.835 4.34527 29.6161L9.43657 35.2733L31.7454 10.4853L26.6543 4.82807C25.9515 4.04705 25.9515 2.7809 26.6543 1.99987L27.9269 0.585873C28.6298 -0.195158 29.7695 -0.195158 30.4724 0.585873L31.7454 1.99987L33.018 0.585873C33.3556 0.210747 33.8134 0 34.2909 0C34.7683 0 35.2262 0.210747 35.5637 0.585873L38.1091 3.41387L39.3823 1.99987C40.0852 1.21884 41.2249 1.21884 41.9278 1.99987L43.1997 3.41387C43.9024 4.19533 43.9024 5.46162 43.1997 6.24307L41.9271 7.65707L44.4725 10.4853C45.1753 11.2663 45.1753 12.5325 44.4725 13.3135L43.1997 14.7275V14.7275L44.4732 16.1425Z" fill="#4B3502"/>
</svg>
