<svg width="25" height="26" viewBox="0 0 25 26" fill="none" xmlns="http://www.w3.org/2000/svg">
<path fill-rule="evenodd" clip-rule="evenodd" d="M24 2V17.5H17.4961C16.6706 17.5014 16.0008 18.1686 15.9961 18.9941L15.9758 25.5H3.5C2.67194 25.4991 2.00088 24.8281 2 24V2C2.00088 1.17194 2.67194 0.500882 3.5 0.5H22.5C23.3281 0.500882 23.9991 1.17194 24 2ZM17.4961 18.5H23.6561C23.6262 18.5403 23.5944 18.5791 23.5606 18.6162L16.9767 25.2029L16.9961 18.9981C16.9975 18.7228 17.2208 18.5003 17.4961 18.5ZM8 7.5V12.5H20.5C20.7761 12.5 21 12.7239 21 13C21 13.2761 20.7761 13.5 20.5 13.5H8V18.5H13.5C13.7761 18.5 14 18.7239 14 19C14 19.2761 13.7761 19.5 13.5 19.5H8V22.5H7V19.5H5.5C5.22386 19.5 5 19.2761 5 19C5 18.7239 5.22386 18.5 5.5 18.5H7V13.5H5.5C5.22386 13.5 5 13.2761 5 13C5 12.7239 5.22386 12.5 5.5 12.5H7V7.5H5.5C5.22386 7.5 5 7.27614 5 7C5 6.72386 5.22386 6.5 5.5 6.5H7V3.5H8V6.5H20.5C20.7761 6.5 21 6.72386 21 7C21 7.27614 20.7761 7.5 20.5 7.5H8Z" fill="#16864C"/>
</svg>
