<svg width="18" height="18" viewBox="0 0 18 18" fill="none" xmlns="http://www.w3.org/2000/svg">
<path fill-rule="evenodd" clip-rule="evenodd" d="M8.99998 2.16017C5.74531 2.15519 2.74234 3.91044 1.14958 6.74876C-0.443174 9.58707 -0.376734 13.0648 1.32327 15.8402H16.6767C18.3767 13.0648 18.4431 9.58707 16.8504 6.74876C15.2576 3.91044 12.2547 2.15519 8.99998 2.16017ZM1.73814 15.1202C-0.169839 11.637 0.664024 7.28973 3.72539 4.75977C6.78675 2.22981 11.2133 2.22981 14.2747 4.75977C17.336 7.28973 18.1699 11.637 16.2619 15.1202H16.2618H1.73814ZM9.46301 12.3482L12.309 9.50186L12.3092 9.50194C12.4505 9.36551 12.675 9.36746 12.8139 9.50632C12.9528 9.64518 12.9547 9.86972 12.8183 10.011L9.97205 12.8572C10.2027 13.3361 10.0543 13.9116 9.6208 14.2193C9.18727 14.5269 8.59506 14.477 8.21916 14.1011C7.84327 13.7252 7.79333 13.133 8.10097 12.6994C8.4086 12.2659 8.98409 12.1175 9.46301 12.3482ZM8.99998 13.6802C8.80116 13.6802 8.63998 13.519 8.63998 13.3202C8.63998 13.1213 8.80116 12.9602 8.99998 12.9602C9.1988 12.9602 9.35998 13.1213 9.35998 13.3202C9.35998 13.519 9.1988 13.6802 8.99998 13.6802ZM16.2 11.5202C16.3988 11.5202 16.56 11.359 16.56 11.1602C16.56 6.98489 13.1753 3.60017 8.99998 3.60017C4.82471 3.60017 1.43998 6.98489 1.43998 11.1602C1.43998 11.359 1.60116 11.5202 1.79998 11.5202C1.99881 11.5202 2.15998 11.359 2.15998 11.1602C2.15998 7.38254 5.22236 4.32017 8.99998 4.32017C12.7776 4.32017 15.84 7.38254 15.84 11.1602C15.84 11.359 16.0012 11.5202 16.2 11.5202Z" fill="white"/>
</svg>
