<svg width="18" height="18" viewBox="0 0 18 18" fill="none" xmlns="http://www.w3.org/2000/svg">
<path fill-rule="evenodd" clip-rule="evenodd" d="M13.32 2.88H16.92C17.5162 2.88063 17.9994 3.3638 18 3.96V15.48C17.9994 16.0762 17.5162 16.5594 16.92 16.56H1.08C0.483796 16.5594 0.000634936 16.0762 0 15.48V3.96C0.000634936 3.3638 0.483796 2.88063 1.08 2.88H4.68V1.8C4.68115 0.806364 5.48636 0.00115062 6.48 0H11.52C12.5136 0.00115062 13.3188 0.806364 13.32 1.8V2.88ZM6.48 0.72C5.8838 0.720635 5.40064 1.2038 5.4 1.8V2.88H12.6V1.8C12.5994 1.2038 12.1162 0.720635 11.52 0.72H6.48ZM17.28 15.48C17.28 15.6788 17.1188 15.84 16.92 15.84H1.08C0.881178 15.84 0.72 15.6788 0.72 15.48V8.64H3.6V9.36C3.6 9.75765 3.92236 10.08 4.32 10.08H5.04C5.43765 10.08 5.76 9.75765 5.76 9.36V8.64H12.24V9.36C12.24 9.75765 12.5624 10.08 12.96 10.08H13.68C14.0776 10.08 14.4 9.75765 14.4 9.36V8.64H17.28V15.48ZM4.32 7.2V9.36H5.04V7.2H4.32ZM12.96 9.36V7.2H13.68V9.36H12.96ZM14.4 7.2V7.92H17.28V3.96C17.28 3.76118 17.1188 3.6 16.92 3.6H1.08C0.881178 3.6 0.72 3.76118 0.72 3.96V7.92H3.6V7.2C3.6 6.80235 3.92236 6.48 4.32 6.48H5.04C5.43765 6.48 5.76 6.80235 5.76 7.2V7.92H12.24V7.2C12.24 6.80235 12.5624 6.48 12.96 6.48H13.68C14.0776 6.48 14.4 6.80235 14.4 7.2Z" fill="white"/>
</svg>
