<svg width="25" height="25" viewBox="0 0 25 25" fill="none" xmlns="http://www.w3.org/2000/svg">
<path fill-rule="evenodd" clip-rule="evenodd" d="M6 7H19V3.5C19 2.67157 18.3284 2 17.5 2H7.5C6.67157 2 6 2.67157 6 3.5V7ZM24 20.5V11C24 9.34315 22.6569 8 21 8H4C2.34315 8 1 9.34315 1 11V20.5C1 21.3284 1.67157 22 2.5 22H4V18H3.5C3.22386 18 3 17.7761 3 17.5C3 17.2239 3.22386 17 3.5 17H21.5C21.7761 17 22 17.2239 22 17.5C22 17.7761 21.7761 18 21.5 18H21V22H22.5C23.3284 22 24 21.3284 24 20.5ZM7 13.5C7 13.2239 6.77614 13 6.5 13H4.5C4.22386 13 4 13.2239 4 13.5C4 13.7761 4.22386 14 4.5 14H6.5C6.77614 14 7 13.7761 7 13.5ZM5.5 24C5.22386 24 5 23.7761 5 23.5V18H20V23.5C20 23.7761 19.7761 24 19.5 24H5.5Z" fill="#4B3502"/>
</svg>
