<svg width="21" height="18" viewBox="0 0 21 18" fill="none" xmlns="http://www.w3.org/2000/svg">
<path fill-rule="evenodd" clip-rule="evenodd" d="M17.64 18C17.8388 18 18 17.8081 18 17.5714C18 17.3347 17.8388 17.1429 17.64 17.1429H0.72V0.428571C0.72 0.191878 0.558823 0 0.36 0C0.161177 0 0 0.191878 0 0.428571V17.5714C0 17.8081 0.161177 18 0.36 18H17.64ZM3.87444 13.7143C3.87444 14.1877 3.49069 14.5714 3.0173 14.5714C2.54391 14.5714 2.16016 14.1877 2.16016 13.7143C2.16016 13.2409 2.54391 12.8571 3.0173 12.8571C3.08847 12.8621 3.15869 12.8763 3.22618 12.8994L7.3451 8.78006C7.32211 8.71263 7.30797 8.6425 7.30301 8.57143C7.31657 8.10876 7.695 7.74043 8.15786 7.73939C8.62072 7.73835 9.0008 8.10497 9.01644 8.56757L13.7415 11.2676C13.9239 11.1375 14.159 11.1065 14.3688 11.1849L18.488 7.06603C18.465 6.99852 18.4508 6.9283 18.4459 6.85714C18.4459 6.38376 18.8296 6 19.303 6C19.7764 6 20.1602 6.38376 20.1602 6.85714C20.1602 7.33053 19.7764 7.71429 19.303 7.71429C19.2318 7.70934 19.1616 7.69513 19.0941 7.67203L14.9752 11.7914C14.9982 11.8588 15.0123 11.9289 15.0173 12C15.0045 12.4632 14.6258 12.8324 14.1624 12.8334C13.699 12.8345 13.3187 12.467 13.3038 12.0039L8.5787 9.30386C8.39636 9.43391 8.16133 9.46487 7.95153 9.38649L3.83227 13.5054C3.8553 13.5729 3.86947 13.6431 3.87444 13.7143Z" fill="white"/>
</svg>
