<svg width="17" height="18" viewBox="0 0 17 18" fill="none" xmlns="http://www.w3.org/2000/svg">
<path fill-rule="evenodd" clip-rule="evenodd" d="M11.3058 11.5047L16.2714 16.4705C16.4002 16.6039 16.3984 16.816 16.2672 16.9471C16.1361 17.0783 15.924 17.0801 15.7906 16.9513L10.825 11.9854C8.21214 14.3377 4.20088 14.1798 1.78095 11.6296C-0.638991 9.07927 -0.586364 5.06526 1.8996 2.57929C4.38557 0.0933233 8.39958 0.040697 10.9499 2.46063C13.5002 4.88057 13.658 8.89183 11.3058 11.5047ZM0.731004 7.1909C0.731004 10.3831 3.3188 12.9709 6.511 12.9709C9.70166 12.9671 12.2873 10.3815 12.291 7.1909C12.291 3.99869 9.70321 1.4109 6.511 1.4109C3.3188 1.4109 0.731004 3.99869 0.731004 7.1909Z" fill="#4B3502"/>
</svg>
