<svg width="17" height="20" viewBox="0 0 17 20" fill="none" xmlns="http://www.w3.org/2000/svg">
<path fill-rule="evenodd" clip-rule="evenodd" d="M1.61295 0.419348V14.2578H2.41942V0.419348C2.41942 0.187748 2.23889 0 2.01619 0C1.79349 0 1.61295 0.187748 1.61295 0.419348ZM0.403235 15.0965H3.62912C3.85182 15.0965 4.03235 15.2843 4.03235 15.5159C4.03235 15.7475 3.85182 15.9352 3.62912 15.9352H2.41941V18.8707C2.41941 19.1023 2.23888 19.29 2.01618 19.29C1.79348 19.29 1.61294 19.1023 1.61294 18.8707V15.9352H0.403235C0.180535 15.9352 0 15.7475 0 15.5159C0 15.2843 0.180535 15.0965 0.403235 15.0965ZM8.87124 0.419348C8.87124 0.187748 8.6907 0 8.468 0C8.2453 0 8.06477 0.187748 8.06477 0.419348V6.70957H8.87124V0.419348ZM6.85505 7.54826H10.0809C10.3036 7.54826 10.4842 7.73601 10.4842 7.96761C10.4842 8.19921 10.3036 8.38696 10.0809 8.38696H8.87123V18.8707C8.87123 19.1023 8.69069 19.29 8.46799 19.29C8.24529 19.29 8.06476 19.1023 8.06476 18.8707V8.38696H6.85505C6.63235 8.38696 6.45182 8.19921 6.45182 7.96761C6.45182 7.73601 6.63235 7.54826 6.85505 7.54826ZM16.5326 12.5804H13.3067C13.084 12.5804 12.9035 12.7682 12.9035 12.9998C12.9035 13.2314 13.084 13.4191 13.3067 13.4191H14.5164V18.8707C14.5164 19.1023 14.6969 19.29 14.9197 19.29C15.1424 19.29 15.3229 19.1023 15.3229 18.8707V13.4191H16.5326C16.7553 13.4191 16.9358 13.2314 16.9358 12.9998C16.9358 12.7682 16.7553 12.5804 16.5326 12.5804ZM14.9197 0C15.1424 0 15.3229 0.187748 15.3229 0.419348V11.7417H14.5164V0.419348C14.5164 0.187748 14.697 0 14.9197 0Z" fill="#4B3502"/>
</svg>
