<svg width="25" height="24" viewBox="0 0 25 24" fill="none" xmlns="http://www.w3.org/2000/svg">
<path d="M15.3736 11.9993C15.3736 13.5306 14.1322 14.772 12.6009 14.772C11.0695 14.772 9.82812 13.5306 9.82812 11.9993C9.82812 10.468 11.0695 9.22656 12.6009 9.22656C14.1322 9.22656 15.3736 10.468 15.3736 11.9993Z" stroke="white" stroke-linecap="round" stroke-linejoin="round"/>
<path d="M4.1887 20.4982C4.39133 20.701 4.63196 20.862 4.89683 20.9718C5.1617 21.0816 5.44561 21.1381 5.73234 21.1381C6.01906 21.1381 6.30297 21.0816 6.56784 20.9718C6.83271 20.862 7.07334 20.701 7.27597 20.4982H4.1887ZM4.1887 20.4982C3.98584 20.2956 3.82491 20.0549 3.71512 19.7901L4.1887 20.4982ZM20.6749 17.6078L20.6749 17.6078L20.6788 17.6117L20.7443 17.6772L20.7444 17.6774C20.9008 17.8336 21.0249 18.0191 21.1095 18.2232C21.1941 18.4274 21.2377 18.6463 21.2377 18.8673C21.2377 19.0883 21.1941 19.3071 21.1095 19.5113C21.0249 19.7155 20.9008 19.901 20.7444 20.0572L20.744 20.0576C20.5878 20.2139 20.4024 20.338 20.1982 20.4226C19.994 20.5072 19.7752 20.5508 19.5542 20.5508C19.3331 20.5508 19.1143 20.5072 18.9101 20.4226C18.706 20.338 18.5205 20.2139 18.3643 20.0576L18.3641 20.0574L18.2986 19.9919L18.2986 19.9919L18.2947 19.988C17.9662 19.6667 17.5489 19.4511 17.0967 19.3691C16.6454 19.2873 16.1799 19.3423 15.7601 19.527C15.3489 19.7038 14.9982 19.9967 14.7511 20.37C14.5034 20.7439 14.3705 21.1822 14.3687 21.6307V21.6327V21.8182C14.3687 22.2642 14.1915 22.692 13.8761 23.0074C13.5607 23.3228 13.1329 23.5 12.6869 23.5C12.2408 23.5 11.8131 23.3228 11.4977 23.0074C11.1823 22.692 11.0051 22.2642 11.0051 21.8182V21.72H11.0052L11.0049 21.7083C10.9941 21.2469 10.8448 20.7995 10.5763 20.4241C10.3109 20.053 9.94116 19.7693 9.51427 19.609C9.09763 19.4285 8.63676 19.3753 8.18976 19.4564C7.73758 19.5384 7.32032 19.7539 6.99179 20.0753L6.99177 20.0753L6.98787 20.0792L6.92241 20.1446L6.92222 20.1448C6.76603 20.3012 6.58054 20.4252 6.37637 20.5099C6.1722 20.5945 5.95335 20.6381 5.73234 20.6381C5.51132 20.6381 5.29247 20.5945 5.0883 20.5099C4.88413 20.4252 4.69865 20.3012 4.54245 20.1448L4.54206 20.1444C4.38569 19.9882 4.26164 19.8028 4.177 19.5986C4.09237 19.3944 4.0488 19.1756 4.0488 18.9545C4.0488 18.7335 4.09237 18.5147 4.177 18.3105C4.26164 18.1063 4.38569 17.9209 4.54206 17.7647L4.54225 17.7645L4.6077 17.699L4.60772 17.699L4.61159 17.6951C4.93294 17.3666 5.14851 16.9493 5.2305 16.4971C5.31233 16.0458 5.25735 15.5804 5.07266 15.1606C4.89585 14.7493 4.60288 14.3986 4.22965 14.1515C3.85567 13.9038 3.41743 13.7709 2.96888 13.7691H2.96688H2.78143C2.33538 13.7691 1.90761 13.5919 1.5922 13.2765L1.24245 13.6262L1.5922 13.2765C1.2768 12.9611 1.09961 12.5333 1.09961 12.0873C1.09961 11.6412 1.2768 11.2135 1.5922 10.898C1.9076 10.5826 2.33538 10.4055 2.78143 10.4055H2.87961V10.4056L2.8913 10.4053C3.35269 10.3945 3.80016 10.2452 4.17554 9.9767L3.88466 9.57001L4.17554 9.9767C4.54663 9.71128 4.83031 9.34156 4.99065 8.91467C5.17112 8.49803 5.22428 8.03716 5.14323 7.59015C5.06124 7.13797 4.84567 6.72071 4.52431 6.39219L4.52434 6.39216L4.52044 6.38827L4.45498 6.32281L4.45478 6.32261C4.29841 6.16642 4.17437 5.98093 4.08973 5.77676C4.00509 5.57259 3.96153 5.35374 3.96153 5.13273C3.96153 4.91171 4.00509 4.69286 4.08973 4.48869C4.17437 4.28452 4.29841 4.09904 4.45478 3.94284L4.45518 3.94245C4.61137 3.78608 4.79686 3.66203 5.00103 3.57739C5.2052 3.49276 5.42405 3.44919 5.64506 3.44919C5.86608 3.44919 6.08493 3.49276 6.2891 3.57739C6.49327 3.66203 6.67875 3.78608 6.83495 3.94245L6.83515 3.94264L6.9006 4.0081L6.90058 4.00812L6.90452 4.01198C7.23305 4.33333 7.6503 4.5489 8.10249 4.63089C8.51814 4.70626 8.94577 4.66558 9.3387 4.51441C9.40238 4.5129 9.46523 4.49924 9.52385 4.47412C9.93613 4.29742 10.2878 4.00402 10.5354 3.63004L10.1185 3.35396L10.5354 3.63004C10.7831 3.25606 10.916 2.81782 10.9178 2.36927V2.36727V2.18182C10.9178 1.73577 11.095 1.308 11.4104 0.992593C11.7258 0.677191 12.1536 0.5 12.5996 0.5C13.0457 0.5 13.4734 0.677191 13.7888 0.992593L14.1386 0.642841L13.7888 0.992594C14.1042 1.308 14.2814 1.73577 14.2814 2.18182L14.2814 2.28L14.2814 2.28199C14.2832 2.73055 14.4161 3.16878 14.6638 3.54276C14.911 3.916 15.2617 4.20897 15.6729 4.38578C16.0927 4.57047 16.5581 4.62545 17.0095 4.54362C17.4616 4.46163 17.8789 4.24606 18.2074 3.9247L18.2074 3.92473L18.2114 3.92082L18.2768 3.85537L18.277 3.85518C18.4332 3.69881 18.6187 3.57476 18.8228 3.49012C19.027 3.40548 19.2459 3.36192 19.4669 3.36192C19.6879 3.36192 19.9067 3.40548 20.1109 3.49012C20.3151 3.57476 20.5006 3.69881 20.6568 3.85518L20.6572 3.85557C20.8135 4.01176 20.9376 4.19725 21.0222 4.40142C21.1069 4.60559 21.1504 4.82444 21.1504 5.04545C21.1504 5.26647 21.1069 5.48532 21.0222 5.68949C20.9376 5.89366 20.8135 6.07914 20.6572 6.23534L20.657 6.23554L20.5915 6.30099L20.5915 6.30097L20.5876 6.30491C20.2663 6.63344 20.0507 7.05069 19.9687 7.50288C19.8934 7.91853 19.934 8.34617 20.0852 8.73909C20.0867 8.80277 20.1004 8.86562 20.1255 8.92424C20.3022 9.33652 20.5956 9.68814 20.9696 9.93581C21.3436 10.1835 21.7818 10.3164 22.2303 10.3182H22.2323H22.4178C22.8638 10.3182 23.2916 10.4954 23.607 10.8108C23.9224 11.1262 24.0996 11.554 24.0996 12C24.0996 12.446 23.9224 12.8738 23.607 13.1892C23.2916 13.5046 22.8638 13.6818 22.4178 13.6818L22.3196 13.6818L22.3176 13.6818C21.8691 13.6836 21.4308 13.8165 21.0568 14.0642C20.6836 14.3114 20.3907 14.6621 20.2138 15.0733C20.0291 15.4931 19.9742 15.9585 20.056 16.4098C20.138 16.862 20.3535 17.2793 20.6749 17.6078Z" stroke="white" stroke-linecap="round" stroke-linejoin="round"/>
</svg>
