<svg width="17" height="22" viewBox="0 0 17 22" fill="none" xmlns="http://www.w3.org/2000/svg">
<path fill-rule="evenodd" clip-rule="evenodd" d="M16.5966 3.45337H12.7662L12.3905 1.89034C12.2559 1.33036 11.7721 0.937506 11.2171 0.9375H5.8482C5.29316 0.937506 4.80935 1.33036 4.67473 1.89034L4.29903 3.45337H0.46863C0.245948 3.45337 0.0654297 3.6411 0.0654297 3.87268C0.0654297 4.10426 0.245948 4.29199 0.46863 4.29199H1.71855L2.46729 19.87C2.49981 20.5392 3.03104 21.0644 3.67536 21.0644H13.4309C14.0754 21.0644 14.6068 20.5387 14.6389 19.8691L15.3877 4.29199H16.5966C16.8193 4.29199 16.9998 4.10426 16.9998 3.87268C16.9998 3.6411 16.8193 3.45337 16.5966 3.45337ZM5.4571 2.09388C5.50174 1.90706 5.6631 1.77596 5.8482 1.77612H11.217C11.4021 1.77592 11.5635 1.90704 11.6081 2.09388L11.935 3.45337H5.13027L5.4571 2.09388ZM13.4309 20.2258C13.6461 20.2257 13.8234 20.0501 13.8341 19.8265L14.5806 4.29199H2.5256L3.27216 19.8274C3.28319 20.0506 3.46042 20.2257 3.67536 20.2258H13.4309Z" fill="#4B3502"/>
</svg>
